<?xml version="1.0" standalone="no"?><!DOCTYPE svg PUBLIC "-//W3C//DTD SVG 1.1//EN" "http://www.w3.org/Graphics/SVG/1.1/DTD/svg11.dtd"><svg  class="icon" viewBox="0 0 1024 1024" version="1.1" xmlns="http://www.w3.org/2000/svg"  xmlns:xlink="http://www.w3.org/1999/xlink" width="200" height="200"><defs><style type="text/css">@font-face { font-family: "feedback-iconfont";  }
</style></defs><path d="M102.4 51.2a51.2 51.2 0 0 0-51.2 51.2v819.2a51.2 51.2 0 0 0 51.2 51.2h819.2a51.2 51.2 0 0 0 51.2-51.2V102.4a51.2 51.2 0 0 0-51.2-51.2H102.4z m0-51.2h819.2a102.4 102.4 0 0 1 102.4 102.4v819.2a102.4 102.4 0 0 1-102.4 102.4H102.4a102.4 102.4 0 0 1-102.4-102.4V102.4a102.4 102.4 0 0 1 102.4-102.4zM51.2 204.8h921.6v51.2H51.2V204.8z m392.192 525.4656L712.0384 481.28a25.6 25.6 0 0 1 34.816 37.5808l-286.464 265.4208a25.6 25.6 0 0 1-35.1744-0.3072l-158.1056-151.9616a25.6 25.6 0 1 1 35.4304-36.864l140.8 135.168z" fill="#1296db" ></path></svg>