<?xml version="1.0" standalone="no"?><!DOCTYPE svg PUBLIC "-//W3C//DTD SVG 1.1//EN" "http://www.w3.org/Graphics/SVG/1.1/DTD/svg11.dtd"><svg t="1653639472205" class="icon" viewBox="0 0 1024 1024" version="1.1" xmlns="http://www.w3.org/2000/svg"  xmlns:xlink="http://www.w3.org/1999/xlink" width="200" height="200"><defs><style type="text/css">@font-face { font-family: "feedback-iconfont";  }
</style></defs><path d="M360.448 926.72H210.944c-45.568 0-82.944-37.376-82.944-82.944V180.736c0-45.568 37.376-82.944 82.944-82.944h537.6c45.568 0 82.944 37.376 82.944 82.944V373.76c0 17.92-14.336 31.744-31.744 31.744S768 391.168 768 373.76V180.736c0-10.24-8.704-18.944-18.944-18.944h-537.6c-10.24 0-18.944 8.704-18.944 18.944v663.04c0 10.24 8.704 18.944 18.944 18.944h149.504c17.92 0 31.744 14.336 31.744 31.744s-14.336 32.256-32.256 32.256z" ></path><path d="M618.496 324.096H292.352c-17.92 0-31.744-14.336-31.744-31.744s14.336-31.744 31.744-31.744h326.144c17.92 0 31.744 14.336 31.744 31.744s-13.824 31.744-31.744 31.744zM538.624 481.28H292.352c-17.92 0-31.744-14.336-31.744-31.744s14.336-31.744 31.744-31.744h246.272c17.92 0 31.744 14.336 31.744 31.744s-13.824 31.744-31.744 31.744z m-91.648 159.744h-153.6c-17.92 0-31.744-14.336-31.744-31.744 0-17.92 14.336-31.744 31.744-31.744h153.088c17.92 0 31.744 14.336 31.744 31.744 0.512 17.408-13.824 31.744-31.232 31.744z m6.144 281.088M722.432 937.472c-115.2 0-208.896-93.696-208.896-208.896s93.696-208.896 208.896-208.896 208.896 93.696 208.896 208.896-93.696 208.896-208.896 208.896z m0-393.216c-101.888 0-184.32 82.944-184.32 184.32 0 101.888 82.944 184.32 184.32 184.32s184.32-82.944 184.32-184.32c0-101.888-82.432-184.32-184.32-184.32z m-14.336 258.56c-2.56 2.56-5.632 4.096-9.216 4.096s-6.656-1.536-9.216-3.584l-68.096-68.096c-5.12-5.12-5.12-13.312 0-18.432s13.312-5.12 18.432 0l58.368 58.368 105.984-108.032c5.12-5.12 13.312-5.12 18.432 0s5.12 13.312 0 18.432l-114.688 117.248z" ></path><path d="M722.432 952.832c-123.904 0-224.256-100.864-224.256-224.256s100.864-224.256 224.256-224.256 224.256 100.864 224.256 224.256-100.352 224.256-224.256 224.256z m0-393.216c-93.184 0-168.96 75.776-168.96 168.96s75.776 168.96 168.96 168.96 168.96-75.776 168.96-168.96-75.776-168.96-168.96-168.96z m-23.552 262.656c-7.68 0-14.848-3.072-19.968-8.192l-68.096-68.096c-11.264-11.264-11.264-29.184 0-39.936 11.264-11.264 29.184-11.264 39.936 0l47.616 47.616 94.72-96.768c5.12-5.632 12.288-8.704 19.968-8.704 7.68-0.512 14.848 2.56 19.968 8.192 11.264 10.752 11.264 29.184 0.512 39.936l-115.2 117.76c-4.608 5.12-11.776 8.192-19.456 8.192z" ></path></svg>