<svg t="1653641379591" class="icon" viewBox="0 0 1024 1024" version="1.1" xmlns="http://www.w3.org/2000/svg"  width="200" height="200"><path d="M852.825 63.96H277.187c-35.332 0-85.28 49.96-85.28 85.281v575.65h-21.32v0.541c-59.754 5.371-106.6 55.548-106.6 116.72 0 61.148 46.847 111.305 106.6 116.718v0.541h575.64c35.332 0 85.28-49.968 85.28-85.28V213.2h21.32v-0.542l85.28 0.542s21.32-24.932 21.32-42.64c-0.002-58.859-32.648-106.6-106.602-106.6zM618.307 767.864S595.8 803.216 595.8 842.15c0 38.913 22.507 74.266 22.507 74.266v0.354H171.773v-0.354c-36.519-3.436-65.147-35.353-65.147-74.266 0-38.934 28.628-70.873 65.147-74.287v-0.333h446.533v0.333z m170.557-597.302v682.25c0 35.31-28.627 63.959-63.958 63.959h-57.943c-16.887-20.32-27.338-46.158-27.338-74.62 0-61.17 46.846-111.348 106.6-116.719v-0.541H234.546V170.56c0-35.32 28.628-63.96 63.96-63.96h511.68c-11.326 0-21.322 28.64-21.322 63.96z m42.641 0c0-40.308 10.66-63.96 42.64-63.96s42.64 25.036 42.64 63.96h-85.28zM373.125 319.8h277.161a10.653 10.653 0 0 0 10.659-10.66v-21.32c0-5.892-4.767-10.66-10.659-10.66h-277.16a10.653 10.653 0 0 0-10.66 10.66v21.32c0 5.892 4.768 10.66 10.66 10.66z m0 127.919h277.161a10.653 10.653 0 0 0 10.659-10.66v-21.32c0-5.892-4.767-10.66-10.659-10.66h-277.16a10.653 10.653 0 0 0-10.66 10.66v21.32c0 5.892 4.768 10.66 10.66 10.66z m0 127.92h277.161a10.653 10.653 0 0 0 10.659-10.66v-21.32c0-5.892-4.767-10.66-10.659-10.66h-277.16a10.653 10.653 0 0 0-10.66 10.66v21.32c0 5.892 4.768 10.66 10.66 10.66z" ></path></svg>