<?xml version="1.0" standalone="no"?><!DOCTYPE svg PUBLIC "-//W3C//DTD SVG 1.1//EN" "http://www.w3.org/Graphics/SVG/1.1/DTD/svg11.dtd"><svg  class="icon" viewBox="0 0 1024 1024" version="1.1" xmlns="http://www.w3.org/2000/svg"  xmlns:xlink="http://www.w3.org/1999/xlink" width="200" height="200"><defs><style type="text/css">@font-face { font-family: "feedback-iconfont";  }
</style></defs><path d="M277.721303 412.966213H706.059059V327.503363H207.611062V412.966213h70.110241zM277.721303 248.69331H706.059059V163.230461H207.611062V248.69331h70.110241zM292.562158 576.727362h413.496901V491.776266H207.611062V576.727362H292.562158z"></path><path d="M893.872627 634.555518V115.125623A122.820862 122.820862 0 0 0 760.304939 0.492819H171.276557A111.562283 111.562283 0 0 0 49.990956 115.125623v707.243462a126.403137 126.403137 0 0 0 121.285601 133.567687h428.337755a267.647128 267.647128 0 0 0 153.526077 68.063228 223.124566 223.124566 0 0 0 220.054044-220.054044 204.701436 204.701436 0 0 0-79.321806-169.390438z m-574.187529 10.746825h-102.350718v86.99811h339.804384a233.359637 233.359637 0 0 0-11.258579 71.645503 296.817083 296.817083 0 0 0 9.211565 66.527967h-383.815193c-21.493651 0-34.287491-23.540665-34.287491-46.057823V115.125623c0-16.887868 5.629289-27.634694 34.287491-27.634694h589.028382c7.676304 0 46.057823 0 46.057824 27.634694v476.954346l-9.211565-2.558767a129.473658 129.473658 0 0 0-36.846259-6.141044A216.471769 216.471769 0 0 0 612.919905 645.302343z m590.05189 195.489872h-117.703326v117.703325h-51.175359v-117.703325h-117.703326v-51.17536h117.703326v-117.703325h51.175359v117.703325h117.703326z" ></path></svg>