<?xml version="1.0" standalone="no"?><!DOCTYPE svg PUBLIC "-//W3C//DTD SVG 1.1//EN" "http://www.w3.org/Graphics/SVG/1.1/DTD/svg11.dtd"><svg  class="icon" viewBox="0 0 1024 1024" version="1.1" xmlns="http://www.w3.org/2000/svg"  xmlns:xlink="http://www.w3.org/1999/xlink" width="200" height="200"><defs><style type="text/css">@font-face { font-family: "feedback-iconfont";  }
</style></defs><path d="M884.363636 512a23.272727 23.272727 0 0 1 46.545455 0v372.363636a116.363636 116.363636 0 0 1-116.363636 116.363637H162.909091A116.363636 116.363636 0 0 1 46.545455 884.363636V139.636364A116.363636 116.363636 0 0 1 162.909091 23.272727h372.363636a23.272727 23.272727 0 1 1 0 46.545455H162.909091A69.818182 69.818182 0 0 0 93.090909 139.636364v744.727272A69.818182 69.818182 0 0 0 162.909091 954.181818h651.636364a69.818182 69.818182 0 0 0 69.818181-69.818182v-372.363636zM256 814.545455a23.272727 23.272727 0 0 1 0-46.545455h465.454545a23.272727 23.272727 0 0 1 0 46.545455H256z m162.909091-386.001455V581.818182h153.274182l349.090909-349.090909L768 79.453091l-349.090909 349.090909z m365.568-398.429091l186.181818 186.181818a23.272727 23.272727 0 0 1 0 32.907637l-372.363636 372.363636A23.272727 23.272727 0 0 1 581.818182 628.363636H395.636364a23.272727 23.272727 0 0 1-23.272728-23.272727V418.909091a23.272727 23.272727 0 0 1 6.795637-16.477091l372.363636-372.363636a23.272727 23.272727 0 0 1 32.954182 0z" fill="#1afa29" ></path></svg>