<?xml version="1.0" standalone="no"?><!DOCTYPE svg PUBLIC "-//W3C//DTD SVG 1.1//EN" "http://www.w3.org/Graphics/SVG/1.1/DTD/svg11.dtd"><svg t="1656765764279" class="icon" viewBox="0 0 1024 1024" version="1.1" xmlns="http://www.w3.org/2000/svg"  xmlns:xlink="http://www.w3.org/1999/xlink" width="200" height="200"><defs><style type="text/css">@font-face { font-family: "feedback-iconfont"; }
</style></defs><path d="M352.8704 835.072a25.6 25.6 0 0 1-40.1408-31.744C358.4 745.6256 425.6256 716.8 512 716.8c86.3744 0 153.6 28.8256 199.2704 86.528a25.6 25.6 0 0 1-40.1408 31.744C635.8016 790.3744 583.5264 768 512 768s-123.7504 22.3744-159.1296 67.072zM237.4144 321.5872c35.1744 72.3456 86.1696 128.3584 153.2928 168.448a25.6 25.6 0 0 1 0 43.9296c-67.1232 40.0896-118.1184 96.1024-153.2928 168.448C204.8 769.6384 185.6512 851.2 180.2752 947.2H843.776c-5.376-96-24.4736-177.5616-57.1392-244.7872-35.1744-72.3456-86.1696-128.3584-153.2928-168.448a25.6 25.6 0 0 1 0-43.9296c67.1232-40.0896 118.1184-96.1024 153.2928-168.448C819.2 254.3616 838.3488 172.8 843.7248 76.8H180.224C185.6512 172.8 204.8 254.3616 237.4144 321.5872z m-46.08 22.4256C152.3712 263.68 131.3792 166.2976 128 51.9168A25.6 25.6 0 0 1 153.6 25.6h716.8a25.6 25.6 0 0 1 25.6 26.3168c-3.328 114.3808-24.32 211.7632-63.3856 292.096-33.4848 68.8128-80.0768 124.928-139.6736 167.9872 59.5968 43.008 106.1888 99.1744 139.6736 167.9872 39.0656 80.3328 60.0576 177.7152 63.3856 292.096a25.6 25.6 0 0 1-25.6 26.3168H153.6a25.6 25.6 0 0 1-25.6-26.3168c3.328-114.3808 24.32-211.7632 63.3856-292.096 33.4848-68.8128 80.0768-124.928 139.6736-167.9872-59.5968-43.008-106.1888-99.1744-139.6736-167.9872zM51.2 76.8a25.6 25.6 0 0 1 0-51.2h921.6a25.6 25.6 0 0 1 0 51.2H51.2z m0 921.6a25.6 25.6 0 0 1 0-51.2h921.6a25.6 25.6 0 0 1 0 51.2H51.2z" fill="#f4ea2a" ></path></svg>