<?xml version="1.0" standalone="no"?><!DOCTYPE svg PUBLIC "-//W3C//DTD SVG 1.1//EN" "http://www.w3.org/Graphics/SVG/1.1/DTD/svg11.dtd"><svg t="1653639376002" class="icon" viewBox="0 0 1024 1024" version="1.1" xmlns="http://www.w3.org/2000/svg"  xmlns:xlink="http://www.w3.org/1999/xlink" width="200" height="200"><defs><style type="text/css">@font-face { font-family: "feedback-iconfont";  }
</style></defs><path d="M864 0a64 64 0 0 1 64 64v384h-64V64H160v832h288v64H160a64 64 0 0 1-64-64V64a64 64 0 0 1 64-64h704z" ></path><path d="M768 512a256 256 0 1 1 0 512 256 256 0 0 1 0-512z m0 64a32 32 0 0 0-32 32V768l0.384 5.056a32 32 0 0 0 8.96 17.6l96 96 4.48 3.648a32 32 0 0 0 40.832-3.648l3.648-4.48a32 32 0 0 0-3.648-40.832L800 754.752V608l-0.512-5.76A32 32 0 0 0 768 576z" ></path><path d="M256 192m32 0l448 0q32 0 32 32l0 0q0 32-32 32l-448 0q-32 0-32-32l0 0q0-32 32-32Z" ></path><path d="M256 384m32 0l256 0q32 0 32 32l0 0q0 32-32 32l-256 0q-32 0-32-32l0 0q0-32 32-32Z" ></path></svg>