<?xml version="1.0" standalone="no"?><!DOCTYPE svg PUBLIC "-//W3C//DTD SVG 1.1//EN" "http://www.w3.org/Graphics/SVG/1.1/DTD/svg11.dtd"><svg t="1649844629238" class="icon" viewBox="0 0 1024 1024" version="1.1" xmlns="http://www.w3.org/2000/svg"  xmlns:xlink="http://www.w3.org/1999/xlink" width="200" height="200"><defs><style type="text/css">@font-face { font-family: "feedback-iconfont"; }
</style></defs><path d="M376.388267 683.8272a306.722133 306.722133 0 1 1 306.7904 306.039467 306.722133 306.722133 0 0 1-306.7904-306.039467z m100.420266 0A206.370133 206.370133 0 1 0 683.178667 477.866667a206.370133 206.370133 0 0 0-206.370134 205.960533zM152.951467 988.706133A118.715733 118.715733 0 0 1 34.167467 870.263467V152.576A118.715733 118.715733 0 0 1 152.951467 34.133333h500.189866a118.715733 118.715733 0 0 1 118.715734 118.442667v139.537067a61.986133 61.986133 0 0 1-59.869867 55.0912 61.0304 61.0304 0 0 1-58.845867-55.0912V165.614933a14.7456 14.7456 0 0 0-14.7456-14.677333H166.468267a14.7456 14.7456 0 0 0-14.7456 14.677333v689.493334a14.7456 14.7456 0 0 0 14.7456 14.677333l157.013333 0.750933a60.6208 60.6208 0 0 1 55.637333 58.026667 63.829333 63.829333 0 0 1-55.637333 61.44z m476.3648-177.902933L518.8608 701.0304a44.714667 44.714667 0 1 1 63.351467-63.146667l78.779733 78.2336 128.136533-127.7952a44.714667 44.714667 0 0 1 63.351467 63.146667l-158.173867 157.764267-2.116266 1.979733a44.987733 44.987733 0 0 1-62.8736-0.4096zM242.9952 652.834133a51.882667 51.882667 0 1 1 0-103.697066h46.216533a51.882667 51.882667 0 1 1 0 103.697066z m0-173.8752a51.882667 51.882667 0 1 1 0-103.765333h135.7824a51.882667 51.882667 0 0 1 0 103.765333z m0-173.943466a51.882667 51.882667 0 1 1 0-103.697067h304.605867a51.882667 51.882667 0 1 1 0 103.697067z" ></path></svg>