<?xml version="1.0" standalone="no"?><!DOCTYPE svg PUBLIC "-//W3C//DTD SVG 1.1//EN" "http://www.w3.org/Graphics/SVG/1.1/DTD/svg11.dtd"><svg t="1649855690995" class="icon" viewBox="0 0 1024 1024" version="1.1" xmlns="http://www.w3.org/2000/svg"  xmlns:xlink="http://www.w3.org/1999/xlink" width="200" height="200"><defs><style type="text/css">@font-face { font-family: "feedback-iconfont"; }
</style></defs><path d="M932.713412 708.577882a37.888 37.888 0 0 1 50.416941 17.769412 37.888 37.888 0 0 1-17.769412 50.416941l-443.181176 212.178824a37.857882 37.857882 0 0 1-32.075294 0.240941L52.103529 787.576471a37.737412 37.737412 0 1 1 31.62353-68.547765l421.888 194.16847z m2.198588-226.816a37.556706 37.556706 0 0 1 50.206118 17.769412 37.888 37.888 0 0 1-17.769412 50.416941l-443.060706 212.178824a37.857882 37.857882 0 0 1-32.075294 0.240941L54.151529 560.760471a37.737412 37.737412 0 1 1 31.62353-68.547765L507.783529 686.381176zM498.025412 34.273882a37.526588 37.526588 0 0 1 33.91247-0.210823l437.940706 210.883765c13.010824 6.384941 21.142588 19.636706 21.052236 34.032941a37.948235 37.948235 0 0 1-21.504 33.822117l-443.030589 212.178824a37.857882 37.857882 0 0 1-32.105411 0.240941L56.259765 323.614118a37.737412 37.737412 0 0 1-22.106353-33.460706 37.948235 37.948235 0 0 1 20.570353-34.394353z m17.52847 75.896471L158.358588 287.472941l351.382588 161.731765 357.195295-171.038118-351.382589-167.996235z" ></path></svg>