<svg xmlns:xlink="http://www.w3.org/1999/xlink" xmlns="http://www.w3.org/2000/svg" version="1.1" viewBox="0 0 1229 556" height="556px" width="1229px">
    <title></title>
    <g fill-rule="evenodd" fill="none" stroke-width="1" stroke="none" id="Page-1">
        <g transform="translate(-250.000000, -5996.000000)" id="背景">
            <g transform="translate(260.000000, 6002.000000)" id="大车">
                <line stroke-linejoin="bevel" stroke-width="13.2999998" stroke="#CCE3FF" id="Path" y2="67.7490737" x2="913.281926" y1="67.7490737" x1="220.810882"></line>
                <line stroke-linejoin="bevel" stroke-width="13.2999998" stroke="#CCE3FF" id="Path" y2="0.690823632" x2="913.281926" y1="0.690823632" x1="220.810882"></line>
                <polyline points="359.390697 2.5284145 306.549074 69.5866645 253.70745 2.5284145" stroke-linejoin="bevel" stroke-width="13.2999998" stroke="#CCE3FF" id="Path"></polyline>
                <polyline points="464.866831 2.5284145 412.018303 69.5866645 359.17668 2.5284145" stroke-linejoin="bevel" stroke-width="13.2999998" stroke="#CCE3FF" id="Path"></polyline>
                <polyline points="570.336061 2.5284145 517.494437 69.5866645 464.645909 2.5284145" stroke-linejoin="bevel" stroke-width="13.2999998" stroke="#CCE3FF" id="Path"></polyline>
                <polyline points="675.80529 2.5284145 622.963667 69.5866645 570.122043 2.5284145" stroke-linejoin="bevel" stroke-width="13.2999998" stroke="#CCE3FF" id="Path"></polyline>
                <polyline points="781.27452 2.5284145 728.432896 69.5866645 675.591273 2.5284145" stroke-linejoin="bevel" stroke-width="13.2999998" stroke="#CCE3FF" id="Path"></polyline>
                <polyline points="886.750653 2.5284145 833.902126 69.5866645 781.060502 2.5284145" stroke-linejoin="bevel" stroke-width="13.2999998" stroke="#CCE3FF" id="Path"></polyline>
                <line stroke-width="13.2999998" stroke="#DCEEFF" id="Path" y2="67.7490737" x2="821.130111" y1="67.7490737" x1="128.659066"></line>
                <line stroke-width="13.2999998" stroke="#DCEEFF" id="Path" y2="0.690823632" x2="821.130111" y1="0.690823632" x1="128.659066"></line>
                <polyline points="267.238883 2.5284145 214.397259 69.5866645 161.548732 2.5284145" stroke-linejoin="bevel" stroke-width="13.2999998" stroke="#DCEEFF" id="Path"></polyline>
                <polyline points="372.708112 2.5284145 319.866489 69.5866645 267.017961 2.5284145" stroke-linejoin="bevel" stroke-width="13.2999998" stroke="#DCEEFF" id="Path"></polyline>
                <polyline points="478.177342 2.5284145 425.335718 69.5866645 372.494095 2.5284145" stroke-linejoin="bevel" stroke-width="13.2999998" stroke="#DCEEFF" id="Path"></polyline>
                <polyline points="583.646572 2.5284145 530.804948 69.5866645 477.963324 2.5284145" stroke-linejoin="bevel" stroke-width="13.2999998" stroke="#DCEEFF" id="Path"></polyline>
                <polyline points="689.122705 2.5284145 636.274178 69.5866645 583.432554 2.5284145" stroke-linejoin="bevel" stroke-width="13.2999998" stroke="#DCEEFF" id="Path"></polyline>
                <polyline points="794.591935 2.5284145 741.750311 69.5866645 688.908688 2.5284145" stroke-linejoin="bevel" stroke-width="13.2999998" stroke="#DCEEFF" id="Path"></polyline>
                <ellipse ry="66.8095535" rx="66.766572" cy="466.651363" cx="1008.34024" fill="#B6D4FF" id="Oval"></ellipse>
                <rect height="133.626015" width="25.6890099" y="399.834902" x="982.651229" fill="#B6D4FF" id="Rectangle"></rect>
                <ellipse ry="66.8095535" rx="66.766572" cy="466.651363" cx="982.651229" fill="#B6D4FF" id="Oval"></ellipse>
                <ellipse ry="66.8095535" rx="66.766572" cy="466.651363" cx="510.307589" fill="#B6D4FF" id="Oval"></ellipse>
                <rect height="133.626015" width="25.6890099" y="399.834902" x="484.61858" fill="#B6D4FF" id="Rectangle"></rect>
                <ellipse ry="66.8095535" rx="66.766572" cy="466.651363" cx="484.61858" fill="#B6D4FF" id="Oval"></ellipse>
                <rect height="375.289939" width="368.855796" y="72.9717003" x="110.847283" fill="#CCE3FF" id="Rectangle"></rect>
                <polygon points="999.323889 109.937673 999.323889 411.268033 774.329305 411.268033 774.329305 72.9786085 974.905168 72.9786085" fill="#B6D4FF" id="Path"></polygon>
                <rect height="375.289939" width="225.001483" y="72.9717003" x="477.859768" fill="#B6D4FF" id="Rectangle"></rect>
                <rect height="314.856687" width="110.653978" y="133.411859" x="494.919037" fill="#DCEEFF" id="Rectangle"></rect>
                <rect height="196.145554" width="145.566453" y="121.688583" x="304.401995" fill="#DCEEFF" id="Rectangle"></rect>
                <rect height="196.145554" width="145.566453" y="121.688583" x="133.443395" fill="#DCEEFF" id="Rectangle"></rect>
                <rect height="8.60075423" width="24.8950738" y="93.2266492" x="133.443395" fill="#ECF6FF" id="Rectangle"></rect>
                <rect height="8.60075423" width="24.8950738" y="93.2266492" x="304.401995" fill="#ECF6FF" id="Rectangle"></rect>
                <rect height="18.8525769" width="145.566453" y="121.688583" x="304.401995" fill="#B6D4FF" id="Rectangle"></rect>
                <rect height="18.8525769" width="145.566453" y="121.688583" x="133.443395" fill="#B6D4FF" id="Rectangle"></rect>
                <polygon points="896.512615 109.972214 896.512615 448.261638 652.139092 448.261638 652.139092 72.9786085 774.329305 72.9786085 798.748017 109.937673 798.768729 109.972214" fill="#CCE3FF" id="Path"></polygon>
                <rect height="338.289424" width="225.001483" y="109.972214" x="896.512615" fill="#B6D4FF" id="Rectangle"></rect>
                <rect height="34.6448051" width="1038.33031" y="433.996131" x="97.937193" fill="#ECF6FF" id="Rectangle"></rect>
                <path fill="#CCE3FF" id="Path" d="M189.005112,468.668569 C189.005112,413.520118 229.461333,368.810012 279.368845,368.810012 C329.276357,368.810012 369.739482,413.492485 369.739482,468.668569"></path>
                <ellipse ry="66.8095535" rx="66.766572" cy="466.82407" cx="304.912875" fill="#B6D4FF" id="Oval"></ellipse>
                <rect height="133.626015" width="25.6890099" y="400.014516" x="279.223865" fill="#B6D4FF" id="Rectangle"></rect>
                <ellipse ry="66.8095535" rx="66.766572" cy="466.82407" cx="279.223865" fill="#CCE3FF" id="Oval"></ellipse>
                <path stroke-width="26.5999997" stroke="#ECF6FF" id="Path" d="M189.005112,468.668569 C189.005112,415.682396 229.461333,372.733891 279.368845,372.733891 C329.276357,372.733891 369.739482,415.654763 369.739482,468.668569"></path>
                <ellipse ry="39.3907635" rx="39.3654217" cy="466.82407" cx="279.223865" fill="#ECF6FF" id="Oval"></ellipse>
                <ellipse ry="14.1549762" rx="14.1458697" cy="466.82407" cx="279.223865" fill="#CCE3FF" id="Oval"></ellipse>
                <path fill="#CCE3FF" id="Path" d="M686.264536,468.454413 C686.264536,415.475149 726.727659,372.519735 776.635172,372.519735 C826.542684,372.519735 867.005809,415.475149 867.005809,468.454413"></path>
                <ellipse ry="66.8095535" rx="66.766572" cy="466.651363" cx="802.945523" fill="#B6D4FF" id="Oval"></ellipse>
                <rect height="133.626015" width="25.6890099" y="399.834902" x="777.256513" fill="#B6D4FF" id="Rectangle"></rect>
                <ellipse ry="66.8095535" rx="66.766572" cy="466.651363" cx="777.256513" fill="#CCE3FF" id="Oval"></ellipse>
                <path stroke-width="26.5999997" stroke="#ECF6FF" id="Path" d="M686.264536,468.447505 C686.264536,413.299054 726.727659,368.588949 776.635172,368.588949 C826.542684,368.588949 867.005809,413.299054 867.005809,468.447505"></path>
                <ellipse ry="39.3907635" rx="39.3654217" cy="466.651363" cx="777.256513" fill="#ECF6FF" id="Oval"></ellipse>
                <ellipse ry="14.1549762" rx="14.1458697" cy="466.651363" cx="777.256513" fill="#CCE3FF" id="Oval"></ellipse>
                <line stroke-width="5.69999993" stroke="#ECF6FF" id="Path" y2="297.88315" x2="279.002944" y1="297.88315" x1="133.443395"></line>
                <line stroke-width="5.69999993" stroke="#ECF6FF" id="Path" y2="274.940898" x2="279.002944" y1="274.940898" x1="133.443395"></line>
                <line stroke-width="5.69999993" stroke="#ECF6FF" id="Path" y2="251.998645" x2="133.443395" y1="251.998645" x1="279.002944"></line>
                <line stroke-width="5.69999993" stroke="#ECF6FF" id="Path" y2="229.0633" x2="279.002944" y1="229.0633" x1="133.443395"></line>
                <line stroke-width="5.69999993" stroke="#ECF6FF" id="Path" y2="206.121047" x2="133.443395" y1="206.121047" x1="279.002944"></line>
                <line stroke-width="5.69999993" stroke="#ECF6FF" id="Path" y2="183.178794" x2="279.002944" y1="183.178794" x1="133.443395"></line>
                <line stroke-width="5.69999993" stroke="#ECF6FF" id="Path" y2="160.236542" x2="133.443395" y1="160.236542" x1="279.002944"></line>
                <line stroke-width="5.69999993" stroke="#ECF6FF" id="Path" y2="297.88315" x2="449.968448" y1="297.88315" x1="304.401995"></line>
                <line stroke-width="5.69999993" stroke="#ECF6FF" id="Path" y2="274.940898" x2="449.968448" y1="274.940898" x1="304.401995"></line>
                <line stroke-width="5.69999993" stroke="#ECF6FF" id="Path" y2="251.998645" x2="304.401995" y1="251.998645" x1="449.968448"></line>
                <line stroke-width="8.54999989" stroke="#CCE3FF" id="Path" y2="355.028081" x2="1100.30565" y1="355.028081" x1="924.079456"></line>
                <line stroke-width="8.54999989" stroke="#CCE3FF" id="Path" y2="337.073575" x2="1100.30565" y1="337.073575" x1="924.079456"></line>
                <line stroke-width="8.54999989" stroke="#CCE3FF" id="Path" y2="319.112161" x2="924.079456" y1="319.112161" x1="1100.30565"></line>
                <line stroke-width="5.69999993" stroke="#ECF6FF" id="Path" y2="229.0633" x2="449.968448" y1="229.0633" x1="304.401995"></line>
                <line stroke-width="5.69999993" stroke="#ECF6FF" id="Path" y2="206.121047" x2="304.401995" y1="206.121047" x1="449.968448"></line>
                <line stroke-width="5.69999993" stroke="#ECF6FF" id="Path" y2="183.178794" x2="449.968448" y1="183.178794" x1="304.401995"></line>
                <line stroke-width="5.69999993" stroke="#ECF6FF" id="Path" y2="160.236542" x2="304.401995" y1="160.236542" x1="449.968448"></line>
                <polygon points="369.394292 343.98872 449.968448 343.98872 449.968448 401.050752 407.178745 401.050752" fill="#DCEEFF" id="Path"></polygon>
                <ellipse ry="20.6210854" rx="20.607819" cy="380.788895" cx="153.036356" fill="#DCEEFF" id="Oval"></ellipse>
                <ellipse ry="17.7818003" rx="17.7703605" cy="170.198219" cx="525.378568" fill="#CCE3FF" id="Oval"></ellipse>
                <ellipse ry="16.1376401" rx="16.127258" cy="397.866054" cx="526.027524" fill="#CCE3FF" id="Oval"></ellipse>
                <ellipse ry="17.7818003" rx="17.7703605" cy="170.198219" cx="575.803863" fill="#CCE3FF" id="Oval"></ellipse>
                <ellipse ry="11.3156911" rx="11.3084113" cy="216.690649" cx="518.964945" fill="#CCE3FF" id="Oval"></ellipse>
                <ellipse ry="11.3156911" rx="11.3084113" cy="216.690649" cx="551.074481" fill="#CCE3FF" id="Oval"></ellipse>
                <ellipse ry="8.44877302" rx="8.44333756" cy="387.185922" cx="581.437358" fill="#CCE3FF" id="Oval"></ellipse>
                <ellipse ry="8.44877302" rx="8.44333756" cy="408.283675" cx="562.148163" fill="#CCE3FF" id="Oval"></ellipse>
                <ellipse ry="11.3156911" rx="11.3084113" cy="216.690649" cx="583.190921" fill="#CCE3FF" id="Oval"></ellipse>
                <path fill-rule="nonzero" fill="#CCE3FF" id="Shape" d="M586.221686,250.907143 L586.221686,303.83805 L515.506145,303.83805 L515.506145,250.907143 L586.221686,250.907143 Z M590.363961,246.762202 L511.36387,246.762202 L511.36387,307.982992 L590.363961,307.982992 L590.363961,246.762202 Z"></path>
                <path fill-rule="nonzero" fill="#CCE3FF" id="Shape" d="M542.265242,321.979078 L542.265242,364.444007 L515.506145,364.444007 L515.506145,321.979078 L542.265242,321.979078 Z M546.407518,317.834137 L511.36387,317.834137 L511.36387,368.588949 L546.407518,368.588949 L546.407518,317.834137 Z"></path>
                <path fill-rule="nonzero" fill="#CCE3FF" id="Shape" d="M586.221686,321.979078 L586.221686,364.444007 L559.434973,364.444007 L559.434973,321.979078 L586.221686,321.979078 Z M590.363961,317.834137 L555.292698,317.834137 L555.292698,368.588949 L590.363961,368.588949 L590.363961,317.834137 Z"></path>
                <line stroke-width="7.5999999" stroke="#DCEEFF" id="Path" y2="136.720905" x2="652.139092" y1="136.720905" x1="605.579919"></line>
                <rect height="152.181538" width="175.452969" y="139.021348" x="924.976949" fill="#DCEEFF" id="Rectangle"></rect>
                <path fill-rule="nonzero" fill="#CCE3FF" id="Shape" d="M1095.94246,143.511701 L1095.94246,286.712532 L929.478222,286.712532 L929.478222,143.511701 L1095.95627,143.511701 L1095.94246,143.511701 Z M1104.93119,134.530995 L920.503293,134.530995 L920.503293,295.693239 L1104.93119,295.693239 L1104.93119,134.530995 Z"></path>
                <rect height="152.181538" width="72.7176406" y="139.021348" x="790.718907" fill="#DCEEFF" id="Rectangle"></rect>
                <path fill-rule="nonzero" fill="#B6D4FF" id="Shape" d="M858.955987,143.511701 L858.955987,286.712532 L795.206372,286.712532 L795.206372,143.511701 L858.955987,143.511701 Z M867.930916,134.530995 L786.231443,134.530995 L786.231443,295.693239 L867.930916,295.693239 L867.930916,134.530995 Z"></path>
                <rect height="152.181538" width="72.7176406" y="139.021348" x="689.826891" fill="#DCEEFF" id="Rectangle"></rect>
                <path fill-rule="nonzero" fill="#B6D4FF" id="Shape" d="M758.063971,143.511701 L758.063971,286.712532 L694.321261,286.712532 L694.321261,143.511701 L758.063971,143.511701 Z M767.0389,134.530995 L685.346331,134.530995 L685.346331,295.693239 L767.0389,295.693239 L767.0389,134.530995 Z"></path>
                <rect height="55.5560365" width="225.001483" y="378.447002" x="896.512615" fill="#DCEEFF" id="Rectangle"></rect>
                <rect height="27.7780183" width="54.2016706" y="392.332557" x="912.840083" fill="#ECF6FF" id="Rectangle"></rect>
                <rect height="11.5989288" width="33.0898748" y="312.038126" x="833.902126" fill="#ECF6FF" id="Rectangle"></rect>
                <rect height="27.7780183" width="54.2016706" y="392.332557" x="1050.70881" fill="#ECF6FF" id="Rectangle"></rect>
                <polyline points="686.264536 114.048073 670.586023 114.048073 670.586023 317.841045 689.122705 317.841045" stroke-width="12.3499998" stroke="#B6D4FF" id="Path"></polyline>
                <polygon points="1097.34392 109.972214 886.750653 109.972214 886.750653 67.4934689 1089.85331 67.4934689" fill="#DCEEFF" id="Path"></polygon>
                <polygon points="1001.82306 109.972214 989.762135 109.972214 982.271523 67.4934689 994.33244 67.4934689" fill="#B6D4FF" id="Path"></polygon>
                <polygon points="894.31721 109.972214 842.959901 109.972214 850.450515 67.4934689 886.826595 67.4934689" fill="#CCE3FF" id="Path"></polygon>
                <line stroke-linecap="round" fill="#ECF6FF" stroke-width="18.9999998" stroke="#DCEEFF" id="Path" y2="540.389878" x2="0" y1="540.389878" x1="1209.11631"></line>
            </g>
        </g>
    </g>
</svg>