<?xml version="1.0" standalone="no"?><!DOCTYPE svg PUBLIC "-//W3C//DTD SVG 1.1//EN" "http://www.w3.org/Graphics/SVG/1.1/DTD/svg11.dtd"><svg t="1649643668011" class="icon" viewBox="0 0 1024 1024" version="1.1" xmlns="http://www.w3.org/2000/svg"  width="200" height="200" xmlns:xlink="http://www.w3.org/1999/xlink"><defs><style type="text/css">@font-face { font-family: "feedback-iconfont"; }
</style></defs><path d="M944.8 828.8c-96-50.5-169.4-78.6-234.8-89.6l7.1-9.7c2.8-3.8 3.7-8.7 2.6-13.3l-14.8-59.4c39.8-56.1 63.3-126.2 63.3-192.7v-64h48c8.8 0 16-7.1 16-16 0-8.8-7.1-16-16-16h-16v-16c0.1-43-9.9-85.5-29.4-123.8L627.1 256c-5.2 1-10.6-0.6-14.3-4.4-3.7-3.7-5.4-9.1-4.4-14.3l26.3-137.8c-13.8-6.2-28.1-11.4-42.6-15.5v-3.4c0-26.7-21.6-48.2-48.3-48.3h-63.5c-26.7-0.3-48.3 21.3-48.3 48v3.4c-14.5 4.1-28.8 9.3-42.5 15.5L415.8 237c1 5.2-0.7 10.6-4.4 14.3-3.7 3.7-9.1 5.4-14.3 4.4L253.4 228c-19.3 38.4-29.5 80.9-29.4 123.8v16h-16c-5.7 0-11 3-13.8 8-2.9 4.9-2.9 11 0 16 2.9 4.9 8.1 8 13.8 8h48v64c0 66.4 23.5 136.6 63.3 192.7l-14.8 59.4c-1.1 4.6-0.2 9.4 2.6 13.2l7.1 9.7c-65.2 11-138.7 39.1-234.8 89.6-29.3 15.3-47.6 45.7-47.6 78.8V976c0 8.8 7.1 16 16 16H438l147.3-0.1c0.3 0 0.5 0.1 0.7 0.1h390.2c4.2 0 8.3-1.7 11.3-4.7s4.7-7.1 4.7-11.3v-68.4c0.2-33.1-18-63.5-47.4-78.8zM288 464.1v-64h448.2v64c0.2 66.4-22 130.9-63.2 183l-1.8 1.5c-5.5 7-11.2 13.6-17 19.9l-0.1 0.1c-3.9 4.1-7.9 7.8-12 11.5-39.2 35.3-85.6 55.9-130 55.9s-90.9-20.6-130-55.9c-4-3.8-8.1-7.4-11.9-11.5l-0.1-0.1c-6-6.4-11.7-13-17.1-19.9-0.6-0.5-1.1-1-1.8-1.5-41.1-52.2-63.3-116.7-63.2-183z m49.4 252.6l7.2-28.7 0.1 0.1c38.7 42.1 87.9 71.6 143.4 78.5h0.1l-43.5 97.7-107.3-147.6z m114.2 243.2l9.6-48H563l4.1 20.2 5.5 27.6-121 0.2z m128-95.8l-43.5-97.7h0.1c55.5-6.7 104.7-36.4 143.4-78.5l0.1-0.1 7.2 28.7-107.3 147.6z m84.8-749.2l-20 105 109.5-21c-23.2-34.3-53.9-63-89.5-84z m-304.5 0c-35.7 21-66.2 49.7-89.5 84l109.5 21-20-105z"  fill="#FF6C16"></path></svg>