<?xml version="1.0" standalone="no"?><!DOCTYPE svg PUBLIC "-//W3C//DTD SVG 1.1//EN" "http://www.w3.org/Graphics/SVG/1.1/DTD/svg11.dtd"><svg t="1656766515220" class="icon" viewBox="0 0 1024 1024" version="1.1" xmlns="http://www.w3.org/2000/svg"  xmlns:xlink="http://www.w3.org/1999/xlink" width="200" height="200"><defs><style type="text/css">@font-face { font-family: "feedback-iconfont";}
</style></defs><path d="M860 340.98l-3.8-5.25-273.36-174.76c-32.36-20.71-100.36-36.49-143.79-12.22-18.15 10.11-35.82 22.63-51.49 34.81l-0.56-24.63-180.35-4.29c-29.09 0-52.76 24.12-52.76 53.76v694.96c0 29.65 23.67 53.76 52.76 53.76h610.9c29.09 0 52.76-24.12 52.76-53.76V372.94c0-11.42-3.65-22.78-10.31-31.96z m-637.84 149.2H345.7l270.14 160.36 1.42 113.91h-395.1V490.18z m579.88 398.67H222.16v-56.12h416.9c12.59 0 24.39-4.93 33.24-13.87 8.86-8.96 13.65-20.83 13.51-33.45l-1.84-147.78c-0.21-16.18-8.97-31.36-22.88-39.63L375.51 428.48a46.596 46.596 0 0 0-23.87-6.58H222.16V223.3l98.07 2.36 1.46 62.85h33.36c13.9 0 20.98-6.11 38.11-20.91 18.41-15.89 49.25-42.54 79.18-59.23 14.14-7.87 54.12-2.4 73.72 10.13l255.98 163.65v506.7z" fill="#1296db" ></path><path d="M454.73 260.41l-33.17 32.09h-0.01c-9.25 8.96-13.86 21.45-12.65 34.27 1.21 12.8 8.08 24.2 18.84 31.27l277.49 182.23c6.99 4.6 15.06 6.91 23.15 6.91 6.67 0 13.36-1.58 19.47-4.76a42.195 42.195 0 0 0 22.68-36.18l2.18-74.92c0.41-14.78-7.1-28.89-19.63-36.83l-224.14-141.7a60.284 60.284 0 0 0-74.21 7.62z m259.69 217.84L474.36 320.6l19.94-19.29c1.13-1.13 2.86-1.27 4.22-0.42l217.07 137.22-1.17 40.14zM176.03 137.51h192.85c9.37 0 16.96-7.59 16.96-16.96V84.09c0-9.37-7.59-16.96-16.96-16.96H176.03c-9.37 0-16.96 7.59-16.96 16.96v36.46c0 9.36 7.59 16.96 16.96 16.96z" fill="#1296db" ></path></svg>