<?xml version="1.0" standalone="no"?><!DOCTYPE svg PUBLIC "-//W3C//DTD SVG 1.1//EN" "http://www.w3.org/Graphics/SVG/1.1/DTD/svg11.dtd"><svg  class="icon" viewBox="0 0 1024 1024" version="1.1" xmlns="http://www.w3.org/2000/svg"  xmlns:xlink="http://www.w3.org/1999/xlink" width="200" height="200"><defs><style type="text/css">@font-face { font-family: "feedback-iconfont"; }
</style></defs><path d="M843.62 357L609.29 192.66A69.69 69.69 0 0 0 569.15 180H262.9a70 70 0 0 0-69.9 69.9v645.68a70 70 0 0 0 69.89 69.89h540.6a70 70 0 0 0 69.89-69.89V414.22A69.93 69.93 0 0 0 843.62 357z m-13.55 538.58a26.61 26.61 0 0 1-26.58 26.58H262.9a26.61 26.61 0 0 1-26.58-26.58V249.9a26.61 26.61 0 0 1 26.58-26.58h306.25a26.56 26.56 0 0 1 15.27 4.8l234.34 164.32a26.63 26.63 0 0 1 11.31 21.78zM286.77 174h214.91a56.77 56.77 0 1 0 0-113.54H286.77a56.77 56.77 0 1 0 0 113.54z m0-70.23h214.91a13.46 13.46 0 1 1 0 26.92H286.77a13.46 13.46 0 1 1 0-26.92z" ></path><path d="M491.48 471.76c-11.23 14.67-109.74 145.14-109.74 208.79a126.95 126.95 0 0 0 253.89 0c0-63.65-98.54-194.12-109.76-208.79-8.21-10.7-26.18-10.7-34.39 0z m17.19 292.42A83.72 83.72 0 0 1 425 680.55c0-31.89 46-106.57 83.63-159.18 37.67 52.59 83.66 127.27 83.66 159.18a83.74 83.74 0 0 1-83.62 83.63zM554.31 256.75A21.65 21.65 0 1 0 529.19 292l245.08 174.41a21.65 21.65 0 0 0 25.12-35.27z" ></path></svg>