<?xml version="1.0" standalone="no"?><!DOCTYPE svg PUBLIC "-//W3C//DTD SVG 1.1//EN" "http://www.w3.org/Graphics/SVG/1.1/DTD/svg11.dtd"><svg  class="icon" viewBox="0 0 1024 1024" version="1.1" xmlns="http://www.w3.org/2000/svg"  xmlns:xlink="http://www.w3.org/1999/xlink" width="200" height="200"><defs><style type="text/css">@font-face { font-family: "feedback-iconfont"; }
</style></defs><path d="M704.704 836.608c-71.68 0-129.28-57.6-129.28-129.28s57.6-129.28 129.28-129.28 129.28 57.6 129.28 129.28c0 71.04-56.96 129.28-128 129.28h-1.28z m0-186.24c-32 0-57.6 25.6-57.6 57.6s25.6 57.6 57.6 57.6 57.6-25.6 57.6-57.6a56.576 56.576 0 0 0-55.68-57.6h-1.92z" fill="#323333" ></path><path d="M769.344 980.608h-122.24a60.928 60.928 0 0 1-28.8-14.08c-7.04-7.04-7.04-14.08-7.04-28.8 0-21.76-7.04-28.8-14.08-28.8a46.144 46.144 0 0 0-42.88 0 48.64 48.64 0 0 1-50.56-14.08l-64.64-107.52c-7.04-14.08-7.04-35.84 7.04-42.88 21.76-21.76 21.76-35.84 21.76-35.84 0-7.04 0-14.08-21.76-35.84a33.92 33.92 0 0 1-10.24-46.08c0.64-1.28 1.92-2.56 3.2-3.84l64.64-107.52c10.88-16 32-22.4 50.56-14.08 21.76 7.04 28.8 7.04 35.84 0 14.08-7.04 14.08-14.08 14.08-28.8-1.28-10.24 1.28-20.48 7.04-28.8 7.04-7.04 14.08-7.04 28.8-7.04h129.28c18.56-1.28 35.2 13.44 35.84 32v3.84c0 28.8 7.04 28.8 14.08 35.84 16 7.68 34.56 7.68 50.56 0 16-6.4 34.56-0.64 42.88 14.08l64.64 107.52c7.04 14.08 7.04 35.84-7.04 42.88-10.88 8.96-18.56 21.76-21.76 35.84 3.2 14.08 10.88 26.88 21.76 35.84 12.8 10.88 15.36 28.8 7.04 42.88l-64.64 107.52a33.92 33.92 0 0 1-42.88 14.08c-15.36-8.32-33.28-10.88-50.56-7.04-7.04 0-14.08 7.04-14.08 28.8 1.28 10.24-1.28 20.48-7.04 28.8-7.04 6.4-21.76 21.12-28.8 21.12z m-93.44-71.68h57.6c6.4-28.16 24.32-51.84 50.56-64.64 24.96-10.88 52.48-13.44 78.72-7.04l35.84-57.6c-19.84-18.56-30.08-44.8-28.8-71.68-1.28-24.96 9.6-48.64 28.8-64.64l-35.84-64.64c-26.24 5.12-53.76 2.56-78.72-7.04-21.12-12.8-37.12-33.28-42.88-57.6h-64.64c-8.32 24.96-26.24 46.08-50.56 57.6-23.04 15.36-51.84 21.12-78.72 14.08l-35.84 57.6c18.56 19.2 28.8 44.8 28.8 71.68 1.28 26.88-8.96 53.12-28.8 71.68l35.84 57.6c24.32-5.12 49.28-2.56 71.68 7.04 28.16 7.04 49.92 28.8 56.96 57.6z" fill="#323333" ></path><path d="M417.344 521.088h-14.08l-294.4-122.24a108.224 108.224 0 0 1-58.24-141.44c0-0.64 0.64-1.28 0.64-1.92 14.08-28.8 28.8-50.56 57.6-57.6l359.04-143.36c24.32-14.72 54.4-14.72 78.72 0l359.04 143.36c55.04 23.04 81.28 86.4 58.24 141.44 0 0.64-0.64 1.28-0.64 1.92-11.52 25.6-32 46.08-57.6 57.6l-50.56 21.76c-21.76 7.04-35.84 0-50.56-21.76-14.08-21.76 0-35.84 21.76-50.56l50.56-21.76 21.76-21.76c7.04-21.76 0-35.84-21.76-50.56l-359.04-143.36h-28.8l-359.04 143.36c-7.04 7.04-14.08 7.04-21.76 21.76-7.04 7.04 0 21.76 0 28.8 7.04 7.04 7.04 14.08 21.76 21.76l294.4 122.24c19.2 7.04 29.44 28.16 23.04 47.36-0.64 1.28-0.64 1.92-1.28 3.2 0 14.72-14.08 21.76-28.8 21.76z" fill="#323333" ></path><path d="M352.704 707.328h-14.72l-229.76-93.44a108.224 108.224 0 0 1-58.24-141.44c0-0.64 0.64-1.28 0.64-1.92 14.08-28.8 28.8-50.56 57.6-57.6l93.44-35.84c21.76-7.04 35.84 0 50.56 21.76 7.04 21.76 0 35.84-21.76 50.56l-93.44 35.84-21.76 21.76c-7.04 21.76 0 35.84 21.76 50.56l229.76 93.44c19.2 7.04 29.44 28.16 23.04 47.36-0.64 1.28-0.64 1.92-1.28 3.2-11.52 1.92-23.68 4.48-35.84 5.76z" fill="#323333" ></path><path d="M403.264 944.768h-14.08l-86.4-35.84c-50.56-21.76-115.2-50.56-186.88-78.72a108.224 108.224 0 0 1-58.24-141.44c0-0.64 0.64-1.28 0.64-1.92 11.52-25.6 32-46.08 57.6-57.6l93.44-42.88c21.76-7.04 35.84 0 50.56 21.76 7.04 21.76 0 35.84-21.76 50.56l-100.48 42.88-21.76 21.76c-7.04 21.76 0 35.84 21.76 50.56 71.68 28.8 136.32 57.6 186.88 78.72l86.4 35.84c19.2 7.04 29.44 28.16 23.04 47.36-0.64 1.28-0.64 1.92-1.28 3.2-9.6 2.56-19.84 5.12-29.44 5.76z" fill="#323333" ></path></svg>