<?xml version="1.0" standalone="no"?><!DOCTYPE svg PUBLIC "-//W3C//DTD SVG 1.1//EN" "http://www.w3.org/Graphics/SVG/1.1/DTD/svg11.dtd"><svg class="icon" viewBox="0 0 1024 1024" version="1.1" xmlns="http://www.w3.org/2000/svg"  xmlns:xlink="http://www.w3.org/1999/xlink" width="200" height="200"><defs><style type="text/css">@font-face { font-family: "feedback-iconfont"; }
</style></defs><path d="M852.212537 973.119566H189.683148a110.486404 110.486404 0 0 1-110.430828-110.486405V199.603582c0-61.023175 50.157938-115.738399 111.153325-115.738399h444.613297v55.576662h-444.613297c-30.511588 0-55.965699 29.650149-55.965699 60.161737v663.001791c0 30.511588 24.759403 55.243202 55.215414 55.243202h662.557177c30.511588 0 60.689715-25.398535 60.689715-55.910122v-444.613297h55.576663v444.613297c0 61.023175-55.243202 111.181113-116.266378 111.181113z m-357.774762-239.980027c-8.086404 8.086404-18.173569 12.115712-28.594193 14.14426l-241.730692 119.600977c-27.204776 12.615902-49.018616-11.782252-38.95924-39.014817l119.489824-241.92521c2.028548-10.420624 6.057856-20.535577 14.14426-28.621981L748.200814 127.576228a55.243202 55.243202 0 0 1 78.112999 0l97.620407 97.675984a55.326567 55.326567 0 0 1 0 78.140787L494.437775 733.139539z m-256.430719 61.301058c-6.335739 12.754844 5.863338 25.843148 19.47962 19.507408l149.278914-90.423229-78.390882-78.446458-90.367652 149.362279z m119.767707-198.047436L669.420896 284.580299l98.315115 96.953487-312.340841 312.535359-97.620407-97.675984zM865.356418 244.815197l-58.550014-58.60559a27.566024 27.566024 0 0 0-39.042605 0L710.575414 243.42578l96.23099 99.037612 58.550014-58.577802a27.649389 27.649389 0 0 0 0-39.070393z" ></path></svg>