<?xml version="1.0" standalone="no"?><!DOCTYPE svg PUBLIC "-//W3C//DTD SVG 1.1//EN" "http://www.w3.org/Graphics/SVG/1.1/DTD/svg11.dtd"><svg  class="icon" viewBox="0 0 1024 1024" version="1.1" xmlns="http://www.w3.org/2000/svg"  width="200" height="200" xmlns:xlink="http://www.w3.org/1999/xlink"><defs><style type="text/css">@font-face { font-family: "feedback-iconfont"; }
</style></defs><path d="M480.67 513a32 32 0 0 0-32-32h-128a32 32 0 0 0 0 64h128a32 32 0 0 0 32-32z"  fill="#1296db"></path><path d="M864 64.16H162a64.19 64.19 0 0 0-64 64v767.68a64.19 64.19 0 0 0 64 64h702a64.19 64.19 0 0 0 64-64V128.16a64.19 64.19 0 0 0-64-64z m0 831.58l-0.11 0.11H162.12l-0.11-0.11V128.27l0.11-0.11h701.76l0.11 0.11z"  fill="#1296db"></path><path d="M320 288.58h383.25a32 32 0 0 0 0-64H320a32 32 0 0 0 0 64zM320 416.41h383.25a32 32 0 0 0 0-64H320a32 32 0 0 0 0 64zM762.18 539L555.73 745.86l-82.47-82.28a32 32 0 0 0-45.2 45.31l105.13 104.89a32 32 0 0 0 45.25-0.05c0.67-0.67 1.3-1.38 1.9-2.09 0.66-0.56 1.31-1.15 1.94-1.78l225.2-225.68a32 32 0 0 0-45.3-45.18z"  fill="#1296db"></path></svg>