<svg  class="icon" viewBox="0 0 1024 1024" version="1.1" xmlns="http://www.w3.org/2000/svg"  width="200" height="200"><path d="M131.92 79.704h634.344v329.56l78.784 41.624V80.048A68.8 68.8 0 0 0 765.92 0.928H132.264a68.8 68.8 0 0 0-79.12 79.12v784.328a68.8 68.8 0 0 0 79.128 79.128h275.2v-78.776h-275.2V79.704h-0.352z" ></path><path d="M254.36 604.992a33.208 33.208 0 1 0 0 66.432h195.76a33.208 33.208 0 1 0 0-66.432h-195.76z m288.328-105.784a32.256 32.256 0 0 0-32.256-32.248h-258a33.216 33.216 0 0 0 0 66.432h258a32.256 32.256 0 0 0 32.256-34.184z m139.968-139a32.248 32.248 0 0 0-32.248-32.248H254.36a33.216 33.216 0 0 0 0 66.432h397.328a32.256 32.256 0 0 0 30.968-34.184z m-31.288-172.536H254.36a33.376 33.376 0 0 0 0 66.752h397.328a33.36 33.36 0 0 0 33.216-33.536 33.36 33.36 0 0 0-33.536-33.216z m233.816 617.28h-43.544L756.504 685.936c56.2-28.576 78.584-97.312 50-153.512-28.584-56.2-97.32-78.584-153.512-50-56.2 28.584-78.592 97.328-50 153.52a114.136 114.136 0 0 0 50 49.992L567.84 804.952h-43.544a57.072 57.072 0 0 0-57.08 57.08v72.888A57.088 57.088 0 0 0 524.296 992h360.888a57.088 57.088 0 0 0 57.08-57.08v-72.888a57.072 57.072 0 0 0-57.08-57.08zM652.656 584.672a51.92 51.92 0 1 1 51.92 51.928l-0.32-0.008a52.24 52.24 0 0 1-51.6-51.92z m51.92 135.784l60.312 84.168H644.272l60.304-84.168z m175.128 208.984h-350.24v-62.248h350.56v62.56l-0.32-0.312z" ></path></svg>