<?xml version="1.0" standalone="no"?><!DOCTYPE svg PUBLIC "-//W3C//DTD SVG 1.1//EN" "http://www.w3.org/Graphics/SVG/1.1/DTD/svg11.dtd"><svg  class="icon" viewBox="0 0 1024 1024" version="1.1" xmlns="http://www.w3.org/2000/svg"  xmlns:xlink="http://www.w3.org/1999/xlink" width="200" height="200"><defs><style type="text/css">@font-face { font-family: "feedback-iconfont";  }
</style></defs><path d="M694.857143 64A27.428571 27.428571 0 0 1 722.285714 91.428571v43.867429L859.428571 135.314286a29.257143 29.257143 0 0 1 29.129143 26.587428L888.685714 164.571429v731.428571a29.257143 29.257143 0 0 1-29.257143 29.257143H164.571429A29.257143 29.257143 0 0 1 135.314286 896V164.571429A29.257143 29.257143 0 0 1 164.571429 135.314286l137.142857-0.018286V91.428571a27.428571 27.428571 0 0 1 24.795428-27.300571L329.142857 64z m-394.971429 129.828571h-106.057143v672.914286h636.342858V193.828571h-106.057143V219.428571a29.257143 29.257143 0 0 1-26.587429 29.129143L694.857143 248.685714H329.142857a29.257143 29.257143 0 0 1-29.257143-29.257143v-25.6z m367.542857-74.971428h-310.857142l0.018285 35.565714c1.170286 3.163429 1.810286 6.582857 1.810286 10.148572v25.6h307.2V164.571429c0-3.584 0.64-7.021714 1.828571-10.203429V118.857143z" ></path><path d="M493.714286 373.028571a157.257143 157.257143 0 1 0 0 314.514286 157.257143 157.257143 0 0 0 0-314.514286z m0 58.514286a98.742857 98.742857 0 1 1 0 197.485714 98.742857 98.742857 0 0 1 0-197.485714z"></path><path d="M606.226286 601.179429l103.442285 103.424-41.380571 41.380571-103.442286-103.442286z"></path></svg>