<?xml version="1.0" standalone="no"?><!DOCTYPE svg PUBLIC "-//W3C//DTD SVG 1.1//EN" "http://www.w3.org/Graphics/SVG/1.1/DTD/svg11.dtd"><svg class="icon" viewBox="0 0 1024 1024" version="1.1" xmlns="http://www.w3.org/2000/svg" xmlns:xlink="http://www.w3.org/1999/xlink" width="200" height="200"><defs><style type="text/css">@font-face { font-family: "feedback-iconfont"; }
</style></defs><path d="M310.7 328.2c0-18.9-15.3-34.3-34.3-34.3h-6.1c-18.9 0-34.3 15.3-34.3 34.3v1c0 18.9 15.3 34.3 34.3 34.3h6.1c18.9 0 34.3-15.3 34.3-34.3v-1zM663.1 329.2v-1c0-18.9-15.3-34.3-34.3-34.3H401.6c-18.9 0-34.3 15.3-34.3 34.3v1c0 18.9 15.3 34.3 34.3 34.3h227.2c18.9-0.1 34.3-15.4 34.3-34.3zM276.4 442.9h-6.1c-18.9 0-34.3 15.3-34.3 34.3s15.3 34.3 34.3 34.3h6.1c18.9 0 34.3-15.3 34.3-34.3s-15.3-34.3-34.3-34.3zM401.6 442.9c-18.9 0-34.3 15.3-34.3 34.3s15.3 34.3 34.3 34.3h117.3c18.9 0 34.3-15.3 34.3-34.3s-15.3-34.3-34.3-34.3H401.6zM276.4 592.6h-6.1c-18.9 0-34.3 15.3-34.3 34.3v0.7c0 18.9 15.3 34.3 34.3 34.3h6.1c18.9 0 34.3-15.3 34.3-34.3v-0.7c0-18.9-15.3-34.3-34.3-34.3zM435 592.6h-33.4c-18.9 0-34.3 15.3-34.3 34.3v0.7c0 18.9 15.3 34.3 34.3 34.3H435c18.9 0 34.3-15.3 34.3-34.3v-0.7c0-18.9-15.4-34.3-34.3-34.3z" ></path><path d="M158.9 144.5h601.7v291.2H830V142.6c0-37.3-30.2-67.5-67.5-67.5H156.9c-37.3 0-67.5 30.2-67.5 67.5v725.1c0 37.3 30.2 67.5 67.5 67.5h291.2v-69.4H158.9V144.5z" ></path><path d="M720.5 509.1c-121.3 0-219.9 98.6-219.9 219.9s98.6 219.9 219.9 219.9S940.4 850.2 940.4 729s-98.7-219.9-219.9-219.9z m0 388.4C627.6 897.5 552 821.9 552 729s75.6-168.5 168.5-168.5S889 636.1 889 729s-75.6 168.5-168.5 168.5z" ></path><path d="M789.5 732.7h-53.4v-80.4c0-14-11.4-25.4-25.4-25.4-14 0-25.4 11.4-25.4 25.4l0.1 115.6c0 8.6 7 15.6 15.6 15.6h88.6c14 0 25.4-11.4 25.4-25.4-0.1-14.1-11.5-25.4-25.5-25.4z" ></path></svg>