<?xml version="1.0" standalone="no"?><!DOCTYPE svg PUBLIC "-//W3C//DTD SVG 1.1//EN" "http://www.w3.org/Graphics/SVG/1.1/DTD/svg11.dtd"><svg  class="icon" viewBox="0 0 1024 1024" version="1.1" xmlns="http://www.w3.org/2000/svg"  xmlns:xlink="http://www.w3.org/1999/xlink" width="200" height="200"><defs><style type="text/css">@font-face { font-family: "feedback-iconfont"; }
</style></defs><path d="M512 1010.44224c-276.64896 0-501.72928-224.35328-501.72928-500.12672S235.35616 10.18368 512 10.18368s501.76 224.3584 501.76 500.13184a503.43936 503.43936 0 0 1-7.168 84.64384 29.93664 29.93664 0 0 1-59.02848-10.0352 443.50464 443.50464 0 0 0 6.29248-74.60864c0-242.8672-198.21568-440.45312-441.856-440.45312S70.144 267.45344 70.144 510.31552 268.37504 950.784 512 950.784a446.37184 446.37184 0 0 0 88.50432-8.83712 29.8496 29.8496 0 1 1 11.93472 58.496A506.73664 506.73664 0 0 1 512 1010.44224z m471.808-214.48704h-130.00704V667.648a29.94176 29.94176 0 0 0-59.904 0v128.3072h-131.712a29.84448 29.84448 0 1 0 0 59.68384h131.73248v128.32768a29.94176 29.94176 0 0 0 59.904 0v-128.32768h129.98656a29.84448 29.84448 0 1 0 0-59.68384z m-335.616-265.61536a29.84448 29.84448 0 1 0 0-59.68896h-106.24v-19.49184L669.4912 323.584a29.89568 29.89568 0 0 0-42.41408-42.1376L512.512 396.06272h-0.4864a30.29504 30.29504 0 0 0-3.28704 0.18432L393.97376 281.46176a29.89568 29.89568 0 0 0-42.41408 42.1376l129.9968 130.048c0.16384 0.36864 0.3328 0.72704 0.512 1.09056v15.93856h-119.296a29.84448 29.84448 0 1 0 0 59.68896h119.296v53.71904h-119.296a29.84448 29.84448 0 1 0 0 59.68896h119.296v65.65376a29.94176 29.94176 0 0 0 59.904 0v-65.67936H648.192a29.84448 29.84448 0 1 0 0-59.68896h-106.24v-53.71904h106.24z" fill="#288DFD" ></path></svg>