<?xml version="1.0" standalone="no"?><!DOCTYPE svg PUBLIC "-//W3C//DTD SVG 1.1//EN" "http://www.w3.org/Graphics/SVG/1.1/DTD/svg11.dtd"><svg  class="icon" viewBox="0 0 1024 1024" version="1.1" xmlns="http://www.w3.org/2000/svg"  xmlns:xlink="http://www.w3.org/1999/xlink" width="200" height="200"><defs><style type="text/css">@font-face { font-family: "feedback-iconfont";  }
</style></defs><path d="M947.2 366.08c-12.8-128-161.28-317.44-168.96-322.56l-25.6-33.28-25.6 38.4c-174.08 212.48-174.08 309.76-168.96 322.56 0 84.48 89.6 161.28 194.56 161.28 58.88 0 110.08-20.48 148.48-51.2 33.28-38.4 53.76-76.8 46.08-115.2z m-89.6-28.16h-76.8v76.8c0 12.8-12.8 25.6-25.6 25.6s-25.6-12.8-25.6-25.6v-76.8h-76.8c-12.8 0-25.6-12.8-25.6-25.6s12.8-25.6 25.6-25.6h76.8v-76.8c0-12.8 12.8-25.6 25.6-25.6s25.6 12.8 25.6 25.6v76.8h76.8c12.8 0 25.6 12.8 25.6 25.6s-12.8 25.6-25.6 25.6z" fill="#00AD45" ></path><path d="M729.6 604.16c-135.68 0-250.88-97.28-250.88-199.68 0-7.68 0-76.8 84.48-220.16l-64-58.88V61.44h12.8c12.8 0 33.28-12.8 33.28-25.6S532.48 2.56 512 2.56H250.88c-12.8 0-33.28 12.8-33.28 25.6s12.8 25.6 33.28 25.6h12.8v51.2h-102.4c-25.6 7.68-51.2 20.48-51.2 51.2V972.8c0 25.6 25.6 51.2 51.2 51.2l619.52-7.68c33.28 0 51.2-20.48 51.2-51.2V583.68c-25.6 12.8-64 20.48-102.4 20.48zM225.28 880.64c0 7.68-7.68 12.8-12.8 12.8-7.68 0-12.8-7.68-12.8-12.8v-84.48c0-7.68 7.68-12.8 12.8-12.8 7.68 0 12.8 7.68 12.8 12.8v84.48z m84.48 0c0 7.68-7.68 12.8-12.8 12.8s-12.8-7.68-12.8-12.8v-181.76c0-7.68 7.68-12.8 12.8-12.8s12.8 7.68 12.8 12.8v181.76z m81.92 0c0 7.68-7.68 12.8-12.8 12.8s-12.8-7.68-12.8-12.8v-110.08c0-7.68 7.68-12.8 12.8-12.8s12.8 7.68 12.8 12.8v110.08z m79.36 0c0 7.68-7.68 12.8-12.8 12.8s-12.8-7.68-12.8-12.8v-181.76c0-7.68 7.68-12.8 12.8-12.8s12.8 7.68 12.8 12.8v181.76z m25.6-243.2c0 7.68-7.68 12.8-12.8 12.8s-12.8-7.68-12.8-12.8v-12.8l-76.8 76.8s-7.68 7.68-12.8 7.68c0 0-7.68 0-7.68-7.68l-76.8-64-97.28 97.28c-7.68 7.68-12.8 7.68-20.48 0-7.68-7.68-7.68-12.8 0-20.48l110.08-110.08c7.68-7.68 12.8-7.68 20.48 0l71.68 71.68 71.68-71.68h-20.48c-7.68 0-12.8-7.68-12.8-12.8s0-12.8 12.8-12.8h51.2c7.68 0 12.8 7.68 12.8 12.8v46.08z" fill="#00AD45" ></path></svg>