<?xml version="1.0" standalone="no"?><!DOCTYPE svg PUBLIC "-//W3C//DTD SVG 1.1//EN" "http://www.w3.org/Graphics/SVG/1.1/DTD/svg11.dtd"><svg  class="icon" viewBox="0 0 1024 1024" version="1.1" xmlns="http://www.w3.org/2000/svg"  xmlns:xlink="http://www.w3.org/1999/xlink" width="200" height="200"><defs><style type="text/css">@font-face { font-family: "feedback-iconfont";  }
</style></defs><path d="M894.4 70.9H130.2c-30.2 0-54.7 24.4-54.7 54.6V890c0 30.2 24.5 54.6 54.7 54.6h561.3c15.2 0 27.4-12.2 27.4-27.4 0-15-12.2-27.4-27.4-27.4H157.6c-15.2 0-27.4-12.2-27.4-27.4V152.9c0-15.1 12.2-27.4 27.4-27.4h709.5c15.2 0 27.4 12.2 27.4 27.4v764.2c0 15.1 12.2 27.4 27.4 27.4s27.4-12.2 27.4-27.4V125.6c-0.1-30.2-24.6-54.7-54.9-54.7z m-615 349.5c0 16.1 13.1 29.2 29.2 29.2h378.5c4.6 0 9.1-1.1 12.9-3.1 8.7 1.3 18-1.5 24.7-8.2 11.4-11.4 11.4-29.8 0-41.2l-82.4-82.4c-11.4-11.4-29.8-11.4-41.2 0-11.4 11.4-11.4 29.8 0 41.2l35.4 35.4H308.4c-16 0-29 13-29 29.1zM716.2 566H326.8c-4.6 0-9.1 1.2-13.1 3.1-8.9-1.3-18.4 1.6-25.3 8.4-11.7 11.6-11.7 30.4 0 42l84.6 83.9c11.7 11.6 30.6 11.6 42.3 0 11.7-11.6 11.7-30.4 0-42l-36.5-36.3h337.4c16.1 0 29.2-13.1 29.2-29.2v-0.7c-0.1-16.1-13.2-29.2-29.2-29.2z m0 0"  fill="#1296db"></path></svg>