<svg  class="icon" viewBox="0 0 1228 1024" version="1.1" xmlns="http://www.w3.org/2000/svg"  width="200" height="200"><path d="M1174.91614 821.982806a21.703345 21.703345 0 0 1 23.204834 15.560889v147.555447a40.403712 40.403712 0 0 1-43.679688 38.765724h-109.199222a14.878394 14.878394 0 0 1-16.379883-15.49264v-73.026979a29.688538 29.688538 0 0 0-32.759766-16.243384c-15.697388 0-36.172242 3.821973-36.172242 16.243384v73.026979a15.42439 15.42439 0 0 1-17.062378 15.49264h-105.786746a40.540211 40.540211 0 0 1-43.679689-38.765724V837.543695a26.139564 26.139564 0 0 1 47.77466 0v136.499026a8.053443 8.053443 0 0 0 9.554932 7.780445h64.837037v-46.477919a76.780702 76.780702 0 0 1 80.534426-57.670839 75.074465 75.074465 0 0 1 78.48694 57.670839v46.477919h68.932009c4.777466 0 8.189942 0 8.189941-9.350184V837.543695a21.703345 21.703345 0 0 1 23.204835-15.560889zM767.466545 0.122167a283.371979 283.371979 0 0 1 291.425422 272.998053 260.644891 260.644891 0 0 1-44.362184 144.34772 290.401679 290.401679 0 0 1-96.914308 89.81636 331.897383 331.897383 0 0 1-149.466434 40.335462h-0.682496a426.832456 426.832456 0 0 0-278.458014 107.765982 359.265438 359.265438 0 0 0-115.341677 261.736883 34.124757 34.124757 0 0 1-67.567018 0 406.69885 406.69885 0 0 1 92.819338-259.825897 391.615707 391.615707 0 0 1 101.691774-95.003322 477.746593 477.746593 0 0 1 116.024173-56.032851 270.541071 270.541071 0 0 1-140.593997-233.208587 283.440229 283.440229 0 0 1 291.425421-272.998053zM377.079329 52.742541a34.534254 34.534254 0 0 1 0 69.068508 187.89091 187.89091 0 0 0 0 374.280331 34.534254 34.534254 0 0 1 0 69.068507A323.775691 323.775691 0 0 0 67.909034 900.333247a34.124757 34.124757 0 1 1-67.567018 0 412.090561 412.090561 0 0 1 71.661989-237.167059 373.05184 373.05184 0 0 1 171.306278-140.1845 251.226458 251.226458 0 0 1-73.709474-84.561147A267.87934 267.87934 0 0 1 136.841043 309.56546 249.451971 249.451971 0 0 1 377.079329 52.742541z m649.052872 548.589588l195.193608 160.181608a32.828016 32.828016 0 0 1 0 35.216749 35.08025 35.08025 0 0 1-36.172242 0l-178.813725-146.395206a20.474854 20.474854 0 0 0-19.792359 0l-177.448735 150.694925a11.329419 11.329419 0 0 1-9.554931 3.344226 47.774659 47.774659 0 0 1-25.934815-7.643945 30.712281 30.712281 0 0 1-3.412476-33.578761l195.193608-161.819596a51.187135 51.187135 0 0 1 60.742067 0zM767.466545 64.20846a209.389507 209.389507 0 1 0 222.493414 209.048259A217.101702 217.101702 0 0 0 767.466545 64.20846z m0 0" ></path></svg>