<?xml version="1.0" standalone="no"?><!DOCTYPE svg PUBLIC "-//W3C//DTD SVG 1.1//EN" "http://www.w3.org/Graphics/SVG/1.1/DTD/svg11.dtd"><svg  class="icon" viewBox="0 0 1024 1024" version="1.1" xmlns="http://www.w3.org/2000/svg"  xmlns:xlink="http://www.w3.org/1999/xlink" width="200" height="200"><defs><style type="text/css">@font-face { font-family: "feedback-iconfont";  }
</style></defs><path d="M962.6 774.9H417.1c-33.9 0-61.4 25-61.4 55.8v66.6c0 30.8 27.6 55.8 61.4 55.8h545.5c33.9 0 61.4-25 61.4-55.8v-66.6c0-30.8-27.6-55.8-61.4-55.8z m16.8 122.4c0 5.3-6.9 11.3-16.9 11.3H417.1c-9.9 0-16.9-5.9-16.9-11.3v-66.6c0-5.3 6.9-11.3 16.9-11.3h545.5c9.9 0 16.9 5.9 16.9 11.3v66.6zM115.8 748.1C52 748.1 0 800.1 0 864s52 115.8 115.8 115.8 115.8-52 115.8-115.8-51.9-115.9-115.8-115.9z m0 187.2c-39.3 0-71.3-32-71.3-71.3s32-71.3 71.3-71.3 71.3 32 71.3 71.3-31.9 71.3-71.3 71.3zM962.6 70.9H417.1c-33.9 0-61.4 25-61.4 55.8v66.6c0 30.8 27.6 55.8 61.4 55.8h545.5c33.9 0 61.4-25 61.4-55.8v-66.6c0-30.8-27.6-55.8-61.4-55.8z m16.8 122.4c0 5.3-6.9 11.3-16.9 11.3H417.1c-9.9 0-16.9-5.9-16.9-11.3v-66.6c0-5.3 6.9-11.3 16.9-11.3h545.5c9.9 0 16.9 5.9 16.9 11.3v66.6zM115.8 44.2C52 44.2 0 96.1 0 160s52 115.8 115.8 115.8 115.8-52 115.8-115.8S179.7 44.2 115.8 44.2z m0 187.1c-39.3 0-71.3-32-71.3-71.3s32-71.3 71.3-71.3 71.3 32 71.3 71.3-31.9 71.3-71.3 71.3zM962.6 422.9H417.1c-33.9 0-61.4 25-61.4 55.8v66.6c0 30.8 27.6 55.8 61.4 55.8h545.5c33.9 0 61.4-25 61.4-55.8v-66.6c0-30.8-27.6-55.8-61.4-55.8z m16.8 122.4c0 5.3-6.9 11.3-16.9 11.3H417.1c-9.9 0-16.9-5.9-16.9-11.3v-66.6c0-5.3 6.9-11.3 16.9-11.3h545.5c9.9 0 16.9 5.9 16.9 11.3v66.6zM115.8 396.2C52 396.2 0 448.1 0 512s52 115.8 115.8 115.8 115.8-52 115.8-115.8-51.9-115.8-115.8-115.8z m0 187.1c-39.3 0-71.3-32-71.3-71.3s32-71.3 71.3-71.3 71.3 32 71.3 71.3-31.9 71.3-71.3 71.3z" fill="" ></path></svg>