<?xml version="1.0" standalone="no"?><!DOCTYPE svg PUBLIC "-//W3C//DTD SVG 1.1//EN" "http://www.w3.org/Graphics/SVG/1.1/DTD/svg11.dtd"><svg  class="icon" viewBox="0 0 1024 1024" version="1.1" xmlns="http://www.w3.org/2000/svg"  xmlns:xlink="http://www.w3.org/1999/xlink" width="200" height="200"><defs><style type="text/css">@font-face { font-family: "feedback-iconfont";  }
</style></defs><path d="M968.42114 652.704437l-1.991237-16.837598-1.027588-3.128434c-0.456706-0.570882-11.206417-19.511611-31.229538-26.166956l-1.484293-0.967074-4.152597-1.535673a79.868699 79.868699 0 0 0-51.197855-0.967074 59.957471 59.957471 0 0 0-37.886024-29.125267c-15.359014-6.655344-38.909045-7.622419-59.900383-0.51151a65.941458 65.941458 0 0 0-7.622418 3.128434c-0.51151 0-1.027588 0.51151-1.991237 0.51151a155.289084 155.289084 0 0 0-22.527011-14.391939c-17.354818-6.143834-33.732286-4.095509-44.48428-3.128434v-77.194687c0-29.125266-17.354818-52.220875-43.97277-60.867457a85.103688 85.103688 0 0 0-61.038721 0.057088c-28.101104 10.694907-44.48428 33.225342-44.484281 61.436056v184.877906a85.445076 85.445076 0 0 0-43.97277 4.664108c-28.158192 9.21518-45.621478 32.197754-45.621477 61.436055v115.762345l1.991237 30.262463c3.641086 22.469922 11.263505 32.253701 35.383277 62.005796l59.843294 69.115562c3.641086 3.583998 10.239343 8.760758 19.0001 8.760758 5.68827 0 13.254742 0 21.502848-4.664107 12.74209-9.21518 15.359014-25.598356 5.68827-36.861862v-0.51151l-59.673171-69.115562C524.600216 882.127138 523.576053 880.642844 523.576053 839.630669v-107.514238a12.514879 12.514879 0 0 1 8.760758-12.23058 21.958412 21.958412 0 0 1 12.74209 0.51151c3.639945 0.967074 7.622419 3.641086 7.622419 12.23058v92.154083c0 14.334851 13.254742 26.109867 29.125266 26.109867 15.927612 0 29.125266-11.775016 29.125267-26.166955v-342.449378c0-6.143834 3.128434-10.239343 8.760758-12.230579 1.991237-0.570882 5.119671-1.027588 10.751994-0.570882l1.991237 0.570882c5.119671 1.991237 7.622419 6.086746 7.622419 12.230579V689.168965c0 14.334851 12.74209 26.109867 29.125267 26.109867 15.870524 0 29.125266-11.775016 29.125266-26.166955v-63.482097c0-6.086746 2.502747-10.239343 8.248106-12.23058a32.426107 32.426107 0 0 1 10.750853-0.51151l1.991237 0.51151c5.119671 1.991237 7.622419 6.143834 7.622418 12.23058v63.539185c0 14.334851 12.74209 26.109867 29.125267 26.109867 15.927612 0 29.125266-11.775016 29.125266-26.166955v-55.748927c0-4.551073 1.991237-8.70367 7.110909-11.717928a19.52417 19.52417 0 0 0 6.143833-1.027588 43.501221 43.501221 0 0 1 7.622419-0.456705l2.503889 0.967074c7.622419 2.616924 8.759616 7.622419 8.759616 11.775016v55.747785c0 14.334851 12.74209 26.109867 29.125267 26.109867 15.870524 0 29.125266-11.775016 29.125266-26.166955v-23.032812c0-5.575235 4.549931-10.239343 8.248106-12.23058 1.991237-0.967074 7.110908-0.51151 11.206417 0l2.67287 0.511511c4.551073 1.991237 7.110908 6.143834 7.110908 11.717927V881.09955l-30.263605 105.978566v4.608161c0 12.23058 10.239343 23.494085 24.005595 26.166955 1.991237 0 3.641086 0.456706 5.632324 0.456706 13.880429 0 26.109867-7.622419 30.263605-19.511611l30.206517-108.992824 3.754121-237.098782zM256.327842 177.596887h457.758442a30.263606 30.263606 0 1 1 0 60.526069H256.327842a30.036394 30.036394 0 0 1-30.206517-30.263605 29.637919 29.637919 0 0 1 30.206517-30.263606z m0 133.111453h457.758442a30.263606 30.263606 0 1 1-0.114177 60.52607H256.327842a30.263606 30.263606 0 0 1 0-60.52607z m0 133.111454h198.701248a30.263606 30.263606 0 1 1 0 60.526069h-198.701248a30.263606 30.263606 0 0 1 0-60.468981zM390.009036 1023.934269H180.441617A127.4209 127.4209 0 0 1 55.578269 896.970074v-769.549163A127.991782 127.991782 0 0 1 183.628282 0.000011h619.48365c70.538201 0 127.991782 56.884983 127.991783 126.964195v332.785484a36.641501 36.641501 0 1 1-73.26816 1.484293V126.964206a54.269201 54.269201 0 0 0-54.780711-53.699461H183.571193A54.212112 54.212112 0 0 0 128.84757 126.964206v769.549163c0 29.750953 24.631282 53.756549 54.780712 53.756548h206.323666a36.576421 36.576421 0 0 1 36.402872 36.865287 35.951875 35.951875 0 0 1-36.406297 36.861862z" ></path></svg>