<?xml version="1.0" standalone="no"?><!DOCTYPE svg PUBLIC "-//W3C//DTD SVG 1.1//EN" "http://www.w3.org/Graphics/SVG/1.1/DTD/svg11.dtd"><svg  class="icon" viewBox="0 0 1024 1024" version="1.1" xmlns="http://www.w3.org/2000/svg" xmlns:xlink="http://www.w3.org/1999/xlink" width="200" height="200"><defs><style type="text/css">@font-face { font-family: "feedback-iconfont"; }
</style></defs><path d="M700.928 529.92m-131.072 0a131.072 131.072 0 1 0 262.144 0 131.072 131.072 0 1 0-262.144 0Z" fill="#CAE4FF" ></path><path d="M335.36 962.9696H176.128c-51.2 0-92.672-41.472-92.672-92.672V166.8096c0-51.2 41.472-92.672 92.672-92.672h663.04c51.2 0 93.184 41.472 93.696 92.672v263.68c0 15.872-12.8 28.16-28.16 28.16-15.872 0-28.16-12.8-28.16-28.16v-263.68c0-20.48-16.384-36.864-36.864-36.864H176.128c-20.48-1.024-37.888 14.336-38.912 34.304v706.048c0 20.48 16.384 36.864 36.864 36.864h161.28c15.872 0 28.16 12.8 28.16 28.16 0 15.872-12.8 28.16-28.16 28.16v-0.512z" fill="#0972E7" ></path><path d="M727.552 295.8336h-460.8c-15.872 0-28.16-12.8-28.16-28.16s12.8-28.16 28.16-28.16h460.8c15.872 0 28.16 12.8 28.16 28.16s-12.8 27.648-28.16 28.16z m-246.784 169.472H266.752c-15.872 0-28.16-12.8-28.16-28.16s12.8-28.16 28.16-28.16h214.016c15.872 0 28.16 12.8 28.16 28.16s-12.288 28.16-28.16 28.16z m228.864 252.416c-93.696 0-169.984-75.776-169.984-169.984s75.776-169.472 169.984-169.472c93.696 0 169.984 75.776 169.984 169.984-0.512 93.696-76.288 169.472-169.984 169.472z m0-287.232c-62.464 0-113.152 50.688-113.152 113.152 0 62.464 50.688 113.152 113.152 113.152 62.464 0 113.152-50.688 113.152-113.152 0-29.696-11.776-57.856-32.256-78.848-21.504-22.016-50.688-34.304-80.896-34.304z" fill="#0972E7" ></path><path d="M954.368 962.9696c-15.872 0-28.16-12.8-28.16-28.16 0-119.808-97.28-216.576-217.088-216.576-119.296 0-216.064 96.768-216.576 216.576 0 15.872-12.8 28.16-28.16 28.16-15.872 0-28.16-12.8-28.16-28.16 0-150.528 122.368-272.896 272.896-272.896s272.896 122.368 272.896 272.896c0 14.848-12.288 27.648-27.648 28.16z" fill="#0972E7" ></path></svg>