<?xml version="1.0" standalone="no"?><!DOCTYPE svg PUBLIC "-//W3C//DTD SVG 1.1//EN" "http://www.w3.org/Graphics/SVG/1.1/DTD/svg11.dtd"><svg  class="icon" viewBox="0 0 1024 1024" version="1.1" xmlns="http://www.w3.org/2000/svg"  xmlns:xlink="http://www.w3.org/1999/xlink" width="200" height="200"><defs><style type="text/css">@font-face { font-family: "feedback-iconfont";  }
</style></defs><path d="M706.88 581.568a348.672 348.672 0 0 0-102.144-60.416 217.408 217.408 0 0 0 89.152-175.36A218.048 218.048 0 0 0 476.032 128a218.112 218.112 0 0 0-217.856 217.856c0 72.768 36.096 137.216 91.136 176.768a347.584 347.584 0 0 0-220.544 323.008c0 17.984 21.12 21.376 26.24 21.376 4.992 0 26.24-3.392 26.24-21.376 0-155.52 142.08-297.6 297.6-297.6l3.968-0.128c0.704 0 1.344 0.192 2.048 0.192 67.776 0 135.04 33.088 183.68 73.088l38.4-39.616z m-230.4-76.608A159.232 159.232 0 0 1 317.44 345.92 159.232 159.232 0 0 1 476.48 186.88 159.232 159.232 0 0 1 635.52 345.92 159.232 159.232 0 0 1 476.48 504.96z" fill="#565656" ></path><path d="M662.4 603.2a27.2 27.2 0 1 0 54.4 0 27.2 27.2 0 0 0-54.4 0z" fill="#565656" ></path><path d="M878.272 727.04c0 11.52-11.776 20.8-26.368 20.8h-186.88c-14.528 0-26.368-9.28-26.368-20.8 0-11.52 11.84-20.8 26.368-20.8h186.88c14.592 0 26.368 9.344 26.368 20.8zM638.72 802.112c0-11.52 11.84-20.8 26.368-20.8h186.88c14.592 0 26.368 9.28 26.368 20.8 0 11.52-11.776 20.8-26.368 20.8h-186.88c-14.528 0-26.368-9.344-26.368-20.8z" fill="#565656" ></path><path d="M882.432 740.672a24.384 24.384 0 0 1-34.496 0l-56.768-56.768a24.384 24.384 0 1 1 34.496-34.56l56.768 56.832a24.384 24.384 0 0 1 0 34.496z m-145.088 139.648a24.384 24.384 0 0 1-34.56 0l-56.768-56.832a24.384 24.384 0 1 1 34.56-34.496l56.768 56.832a24.384 24.384 0 0 1 0 34.496z" fill="#565656" ></path></svg>