<?xml version="1.0" standalone="no"?><!DOCTYPE svg PUBLIC "-//W3C//DTD SVG 1.1//EN" "http://www.w3.org/Graphics/SVG/1.1/DTD/svg11.dtd"><svg  class="icon" viewBox="0 0 1024 1024" version="1.1" xmlns="http://www.w3.org/2000/svg"  xmlns:xlink="http://www.w3.org/1999/xlink" width="200" height="200"><defs><style type="text/css">@font-face { font-family: "feedback-iconfont"; }
</style></defs><path d="M1023.989299 984.565711c0 22.01577-18.943802 39.423588-41.471566 39.423588H42.495556c-22.01577 0.511995-40.447577-17.407818-40.959572-39.423588 0-22.01577 18.431807-39.423588 40.959572-39.423588h940.022177c22.527765 0 41.471567 17.407818 41.471566 39.423588M907.766514 144.894486c23.039759 0 41.471567 17.919813 41.471566 39.423588v661.497087c0 22.01577-18.431807 39.423588-41.471566 39.423588h-173.054192c-22.01577 0.511995-40.447577-17.407818-40.959572-39.423588V184.318074c0-22.01577 18.431807-39.423588 40.959572-39.423588h173.054192z m-131.582625 661.497087h91.135048V223.741662h-91.135048v582.649911zM599.03374 283.133041c22.527765 0 40.959572 17.919813 40.959572 39.423588v523.258532c-0.511995 22.01577-18.943802 39.935583-40.959572 39.423588H425.979549c-22.01577 0-40.447577-17.407818-40.959572-39.423588V323.068624c0-22.01577 18.431807-39.423588 40.959572-39.423588H599.03374v-0.511995zM467.451115 806.391573h90.111058V362.492212H467.451115v443.899361zM289.788972 6.143936c22.527765 0 41.471567 17.919813 41.471566 39.423588v800.247637c0 22.01577-18.943802 39.423588-41.471566 39.423588H116.222785c-22.01577 0.511995-40.447577-17.407818-40.959572-39.423588V45.567524c0-22.01577 18.431807-39.423588 40.959572-39.423588h173.566187zM158.206347 806.391573h90.111058V85.503106H158.206347v720.888467z"></path></svg>